<svg width="69" height="69" viewBox="0 0 69 69" fill="none" xmlns="http://www.w3.org/2000/svg">
<path d="M67.6415 1.17793C67.1992 0.750201 66.6282 0.458636 66.0043 0.341891C65.3803 0.225145 64.7329 0.288736 64.1477 0.524233L46.4912 7.61826C38.7022 10.7477 29.8833 10.7527 22.0903 7.63207L4.461 0.572611C3.88419 0.341351 3.24623 0.277421 2.62954 0.389072C2.01285 0.500722 1.44576 0.782828 1.00152 1.19894L0.965969 1.23222C0.522994 1.6601 0.229045 2.20356 0.123028 2.79069C0.0170045 3.37781 0.10392 3.98092 0.372263 4.52016L31.3932 66.8346C31.6446 67.3423 32.046 67.772 32.55 68.073C33.054 68.374 33.6397 68.5338 34.2381 68.5335C34.8364 68.5332 35.4225 68.3729 35.9274 68.0714C36.4322 67.7699 36.8348 67.3399 37.0876 66.8318L68.2289 4.46487C68.498 3.92463 68.5858 3.32094 68.4805 2.73365C68.3752 2.14636 68.0819 1.60314 67.6393 1.17586L67.6415 1.17793Z" fill="#DD1F1F"/>
</svg>
