<svg xmlns="http://www.w3.org/2000/svg" xmlns:xlink="http://www.w3.org/1999/xlink" viewBox="0 0 443.55 336.61"><defs><style>.cls-1,.cls-10,.cls-3{fill:#575755;}.cls-1{clip-rule:evenodd;}.cls-2,.cls-8{fill:#e12e2f;}.cls-2,.cls-3,.cls-5,.cls-6,.cls-7{fill-rule:evenodd;}.cls-4,.cls-7{fill:#636569;}.cls-5{fill:#392f85;}.cls-6{fill:#0f814d;}.cls-9{clip-path:url(#clip-path);}</style><clipPath id="clip-path"><path class="cls-1" d="M392.28,301.16c-3.62.26-7,.48-10.4.69a19.65,19.65,0,0,1-1.06-4.48c-.17-1.49-.34-3-.56-4.81-.38.59-.59,1-.8,1.32a16.61,16.61,0,0,1-8.74,7.67,16.81,16.81,0,0,1-18.5-4.56,10.5,10.5,0,0,1,.34-14.4,21.09,21.09,0,0,1,5.46-4c3.88-2,7.8-3.88,11.72-5.8,2-1,4.05-2,6.05-3.07a7.59,7.59,0,0,0,4.43-6.56,19.61,19.61,0,0,0-.38-7.24,8,8,0,0,0-7-6.18,15.54,15.54,0,0,0-4.86,0c-2.6.56-4.73,1.67-5.88,4.18-.73,1.54-1.5,3.07-2.35,4.48a4.7,4.7,0,0,1-3.62,2.43c-3.15.38-5.37-1.88-4.86-5.37a6.77,6.77,0,0,1,2.39-4.14,18.2,18.2,0,0,1,6.82-3.62,37.9,37.9,0,0,1,8.39-1.58,47.53,47.53,0,0,1,9.16,0,22.64,22.64,0,0,1,5.37,1.28,8.46,8.46,0,0,1,5.2,5.88,22,22,0,0,1,.43,6.9c-.09,2.09-.26,4.18-.26,6.31-.08,7-.17,14.06-.12,21.14a36.06,36.06,0,0,0,1.15,8.82A11.7,11.7,0,0,0,392.28,301.16ZM379,272.4c-3.92,1.7-7.84,3.32-11.59,5.16a20.94,20.94,0,0,0-4.69,2.94,8.82,8.82,0,0,0-3.41,7.88,7.3,7.3,0,0,0,4.65,6.27,12.09,12.09,0,0,0,7,.81,9.15,9.15,0,0,0,7.16-4.95,16.4,16.4,0,0,0,1.7-6.77c.09-3.58.13-7.16.17-10.74,0-.22,0-.47-.08-.9A5.84,5.84,0,0,0,379,272.4Z"/></clipPath></defs><g id="Layer_2" data-name="Layer 2"><g id="Layer_1-2" data-name="Layer 1"><path class="cls-2" d="M266.65,21.86c6.26,11.72,9.67,24.29,12.14,37.21C280.16,66,281,73,281.69,80a242.62,242.62,0,0,1,.73,33.46,204.7,204.7,0,0,1-8,50.2,126.34,126.34,0,0,1-5.33,14.57,1.68,1.68,0,0,1-.47.51c.09-.34.17-.72.26-1.06a180.14,180.14,0,0,0,6.6-30.39c.68-5.15,1.11-10.31,1.58-15.51a176,176,0,0,0,.51-21.18,197.92,197.92,0,0,0-5.88-44.19,118.22,118.22,0,0,0-9.29-25.53c-.85-1.58-4.6-7.76-5.11-8.52a41.77,41.77,0,0,0-8.44-8.91,19.59,19.59,0,0,0-7.54-3.62,15.21,15.21,0,0,0-11.72,2.43,26.94,26.94,0,0,0-6.91,6.47,65.63,65.63,0,0,0-8.82,15.52,145.35,145.35,0,0,0-7.46,24.12,4.67,4.67,0,0,1-.51,1.45c.09-.81.17-1.66.3-2.48a161.57,161.57,0,0,1,9.38-35.79,71.54,71.54,0,0,1,10.69-18.92,32.2,32.2,0,0,1,6.78-6.4,17.77,17.77,0,0,1,11.08-3.49,17.06,17.06,0,0,1,8.14,2.43,32.5,32.5,0,0,1,9.63,9.2A12,12,0,0,1,263,15.89"/><path class="cls-3" d="M224.29,37c5.62,10.57,8.74,21.95,11,33.63,1.15,6.26,2,12.61,2.55,19a224.4,224.4,0,0,1,.68,30.34,186.45,186.45,0,0,1-7.24,45.39,105.88,105.88,0,0,1-4.81,13.25s-.22.35-.43.43c.09-.34.17-.64.26-.94a165.81,165.81,0,0,0,6-27.53c.6-4.69,1-9.33,1.41-14a151.65,151.65,0,0,0,.51-19.18,186.1,186.1,0,0,0-5.29-40,106.27,106.27,0,0,0-8.52-23.14c-.68-1.37-4.09-7-4.6-7.67a37.14,37.14,0,0,0-7.63-8.1,17.07,17.07,0,0,0-6.82-3.24,13.76,13.76,0,0,0-10.61,2.17,27,27,0,0,0-6.31,5.89,60.15,60.15,0,0,0-7.92,14.06,128.79,128.79,0,0,0-6.73,21.78,3.19,3.19,0,0,1-.52,1.31c.09-.76.17-1.48.3-2.21a148.58,148.58,0,0,1,8.48-32.39,64.79,64.79,0,0,1,9.68-17.17,29.81,29.81,0,0,1,6.13-5.75,16.29,16.29,0,0,1,10.06-3.2,15.31,15.31,0,0,1,7.33,2.21A29.13,29.13,0,0,1,220,30.21c.34.47.68.9,1,1.37"/><path class="cls-4" d="M161.77,127.16a1.62,1.62,0,0,1-.42-.08c-6.57.47-13,.85-19.52,1.45s-13,1.15-19.56,1.87c-8.23,1-16.41,2-24.59,3.11-9.46,1.41-18.88,3.12-28.22,5.25a157.63,157.63,0,0,0-23.6,7.07,46.9,46.9,0,0,0-10.23,5.37,14.37,14.37,0,0,0-4.22,4.39,5.75,5.75,0,0,0,0,6,16.06,16.06,0,0,0,2.51,3.11,33.58,33.58,0,0,0,9,5.41,120.6,120.6,0,0,0,19.64,6.52q11.38,2.94,23,4.86c6.27,1,12.49,2.05,18.75,2.94,5.58.77,11.17,1.37,16.75,2,5.29.55,10.61,1.11,15.9,1.58,4.81.42,9.67.72,14.44,1.06s9.72.73,14.58.94c6.22.34,12.44.56,18.66.81,7.51.26,15,.55,22.5.68,10.66.09,21.31.09,32,.09,4,0,8-.09,12-.17,6.57-.17,13.17-.34,19.78-.6,6.26-.25,12.53-.55,18.83-.85,4.69-.26,9.3-.6,13.94-.94,5.8-.42,11.55-.85,17.34-1.36,4.69-.43,9.47-.86,14.15-1.41,5.93-.64,11.85-1.28,17.73-2.13s11.85-1.75,17.82-2.68c2.3-.39,4.56-.86,6.86-1.28a4.07,4.07,0,0,0-1.24,0c-6.05.77-12.1,1.58-18.15,2.18-6.57.72-13.22,1.32-19.78,1.83q-10.74.9-21.47,1.54c-7.42.42-14.84.72-22.29,1-9.16.3-18.37.52-27.58.6-9.46,0-19,0-28.47-.26-9.71-.17-19.43-.59-29.23-1-6.39-.31-12.87-.68-19.34-1.2-7.08-.51-14.2-1-21.31-1.79q-11.77-1.16-23.49-2.64c-6.9-.89-13.8-2-20.66-3A307.76,307.76,0,0,1,94,171a132.46,132.46,0,0,1-20-6.77,39.4,39.4,0,0,1-7.68-4.35,12.36,12.36,0,0,1-3.23-3.45,5,5,0,0,1,.08-5.8,9,9,0,0,1,2.13-2.42,32,32,0,0,1,4.51-3,65.64,65.64,0,0,1,13-5.07A238.43,238.43,0,0,1,109.35,134c10.7-1.92,21.48-3.37,32.27-4.69C148.22,128.53,154.87,127.93,161.77,127.16Z"/><path class="cls-4" d="M13.13,301.13c-.47-1-.94-1.88-1.28-2.78a25.4,25.4,0,0,1-1.28-8.78q0-15,.09-29.95c0-9.08.08-18.16.17-27.23a9.47,9.47,0,0,1,.08-1h.26q13.74,35.55,27.57,71H39c1.19-3,2.47-5.93,3.75-8.91s2.47-5.88,3.66-8.78,2.52-6,3.75-9,2.56-5.92,3.79-8.91,2.52-6,3.76-8.9,2.47-5.93,3.7-8.82,2.48-6,3.75-9,2.43-5.92,3.92-8.78a2.61,2.61,0,0,1,.26,1.11c.08,3.79.13,7.62.17,11.46.08,4.86.17,9.72.25,14.62.09,6.78.26,13.64.35,20.5a93.15,93.15,0,0,1-.26,12.82,25.84,25.84,0,0,1-2.3,8.7c-.09.12-.09.38-.17.55H84.51a1.14,1.14,0,0,0-.13-.43,24.27,24.27,0,0,1-2.73-7.5,106.26,106.26,0,0,1-2-18c-.25-5-.42-10.06-.42-15.09-.09-8.52-.35-17,.08-25.56a26,26,0,0,1,2.26-10.62l0-.29c-.26,0-.47-.09-.72-.09-3.59,0-7.12,0-10.7,0a3.61,3.61,0,0,0-3.75,2.56Q58.72,244.35,51,262.6c-2.85,6.77-5.67,13.55-8.56,20.28a10.2,10.2,0,0,1-.68,1.41c-.26-.68-.43-1.07-.6-1.49-3.2-8.44-6.35-16.92-9.55-25.36q-5-13.35-10-26.76c-.73-1.88-1.45-3.71-2.13-5.63a2.21,2.21,0,0,0-2.22-1.53H4.43c-.25,0-.55.09-.81.09l0,.21c.17.17.26.34.39.47a9,9,0,0,1,2,4.56,28.08,28.08,0,0,1,.21,3.66c0,7-.09,14-.21,21-.09,5.07-.22,10.1-.48,15.09-.29,5.15-.68,10.22-1.1,15.34A68.48,68.48,0,0,1,2.64,294.6a19.25,19.25,0,0,1-2.21,5.71c-.17.26-.26.51-.43.82Z"/><path class="cls-4" d="M212,301.3h12.69l.3-.26a8.44,8.44,0,0,1-1.74-4.78c-.18-2.13-.35-4.3-.43-6.43-.05-3.83-.05-7.63,0-11.42.08-4.43.17-8.82.25-13.21a24.07,24.07,0,0,1,1.07-6.05,9.48,9.48,0,0,1,6.43-6.44,12.3,12.3,0,0,1,6.7-.3,6.94,6.94,0,0,1,5.84,5.84,46.16,46.16,0,0,1,.85,9c0,7.55-.09,15.05-.13,22.55,0,.34,0,.68,0,1-.14,3.32-.26,6.65-.43,10,0,0,.09.3.12.42,1.58.31,10.36.22,11.13-.12a7.62,7.62,0,0,1-1.83-4.47c-.13-1.8-.26-3.63-.3-5.38-.09-10.14-.17-20.24-.26-30.38a31.32,31.32,0,0,0-.76-5.58,11.66,11.66,0,0,0-9.59-9.17,17.87,17.87,0,0,0-10,1.28,27.58,27.58,0,0,0-8.39,6.1,7.55,7.55,0,0,0-1,1c-.26-.51-.43-.85-.6-1.15s-.3-.68-.42-1a11.66,11.66,0,0,0-8-6.18,16.74,16.74,0,0,0-6.65.08,23.74,23.74,0,0,0-12.1,6.35c-.26.22-.6.47-.94.81-.25-2.17-.47-4.18-.72-6.26-3.62.42-7.12.81-10.74,1.28a7.67,7.67,0,0,1,1.58,4.17c.34,3,.59,6,.64,9,.12,8.05.12,16.11.12,24.17,0,3.15-.17,6.3-.34,9.41a10.66,10.66,0,0,1-1.74,6l.08.21h12.91c-1.7-1.7-1.91-3.79-2.17-5.79a28,28,0,0,1-.26-3.76c0-8.69-.25-17.38.22-26.07a34.67,34.67,0,0,1,.51-4.35,10.3,10.3,0,0,1,5.92-8.1,12.06,12.06,0,0,1,7.63-.77,7.11,7.11,0,0,1,6.14,6,30.23,30.23,0,0,1,.68,5.84c.08,7.16.08,14.28,0,21.43,0,3-.13,6.14-.25,9.21A11.05,11.05,0,0,1,212,301.3Z"/><path class="cls-4" d="M396.16,247.3a11.87,11.87,0,0,1,3.32,5.07c1.28,3.28,2.52,6.65,3.67,10A340.35,340.35,0,0,1,413,296.43c.76,3.37,1.14,6.74.08,10.15a50.27,50.27,0,0,1-9.8,17.73,11.39,11.39,0,0,1-7.67,4.09c-1.71.17-3.37.25-5,.3-2.39.08-4.78-.05-7.2,0a24.63,24.63,0,0,0-3.5.38,1.77,1.77,0,0,0-1.4,2.73,4.66,4.66,0,0,0,1,1.58,8.54,8.54,0,0,0,3.58,2.21,16.32,16.32,0,0,0,9,.6,21.91,21.91,0,0,0,11.29-6.09,49.69,49.69,0,0,0,8.65-11.47,157.86,157.86,0,0,0,9.46-19.39c5.54-13.63,10.91-27.4,16.36-41.08a58.44,58.44,0,0,1,5.24-10.31c.13-.22.22-.47.39-.77a97.79,97.79,0,0,0-11.81.17,6.46,6.46,0,0,0,.3.94,10.26,10.26,0,0,1,.34,4.94A66.59,66.59,0,0,1,431.1,260,293.59,293.59,0,0,1,421,291.87a6,6,0,0,1-.51,1.07c-.21-.55-.34-.9-.43-1.19-.59-2-1.14-3.88-1.7-5.84-2.39-8.52-4.69-17.05-7.16-25.53-.89-3.24-2.05-6.39-3.19-9.54-.48-1.24-1.16-2.43-1.75-3.63a1.68,1.68,0,0,0-1.79-.89c-.77.08-1.54.13-2.26.21C400.25,246.79,398.37,247,396.16,247.3Z"/><path class="cls-4" d="M157.94,301.25c-1.67-2-2-4.26-2.13-6.48s-.26-4.17-.26-6.3c0-4.61,0-9.29,0-13.94,0-3.37.08-6.73.26-10.1a34.48,34.48,0,0,1,.85-5.92,5.61,5.61,0,0,1,5.28-4.78c1.62-.12,3.28,0,4.95,0a46,46,0,0,0,5,0,3.09,3.09,0,0,0,3-2.47,3.48,3.48,0,0,0-1.5-4,7.13,7.13,0,0,0-2.81-1.24,12.23,12.23,0,0,0-10,2.43A21.4,21.4,0,0,0,156.4,253c-.17.26-.42.51-.59.77l-.3-.13c0-1,0-2.05,0-3.11A13,13,0,0,0,155,248a1.53,1.53,0,0,0-2-1.11c-.9.13-1.84.3-2.69.47-1.83.34-3.66.64-5.37.94a22.48,22.48,0,0,1,1.28,3.75,55.3,55.3,0,0,1,.68,7.5q.13,16.25,0,32.48c0,3.15,0,6.39-2.13,9.24Z"/><path class="cls-4" d="M326.53,253.82l-.26-.09c-.09-.8-.09-1.57-.13-2.3a27.19,27.19,0,0,0-.47-3.36,1.56,1.56,0,0,0-2-1.2l-5.71,1c-.77.17-1.58.3-2.47.51a8.44,8.44,0,0,1,1.62,4.09q.38,2.69.51,5.37c.08,3.41.21,6.82.21,10.23,0,6.9,0,13.89-.13,20.88,0,2.26-.17,4.47-.34,6.77a10.69,10.69,0,0,1-1.62,5.33,90.25,90.25,0,0,0,12.74,0,9.27,9.27,0,0,1-1.91-5.37c-.17-2.68-.35-5.37-.35-8,0-6.78.05-13.6.09-20.37a41.89,41.89,0,0,1,1-8.87,5.82,5.82,0,0,1,5.11-4.69c2.56-.42,5.12.13,7.63.13a16.63,16.63,0,0,0,2.52-.13,3.29,3.29,0,0,0,2.9-2.38,3.64,3.64,0,0,0-1.28-4,6.92,6.92,0,0,0-3-1.32,12.26,12.26,0,0,0-7.67,1.07,17.12,17.12,0,0,0-6.22,5.58C327,253.1,326.78,253.44,326.53,253.82Z"/><path class="cls-4" d="M172.94,13.38a13.34,13.34,0,1,0-26.68,0,13.34,13.34,0,1,0,26.68,0Z"/><path class="cls-4" d="M163.13,127l.09,0h.9v0Z"/><path class="cls-5" d="M179.93,51.14c5,9.46,7.8,19.64,9.8,30,1,5.58,1.79,11.25,2.3,16.92a192.57,192.57,0,0,1,.6,27.06,165,165,0,0,1-6.44,40.49,95.51,95.51,0,0,1-4.3,11.8.86.86,0,0,1-.39.39c.09-.26.13-.56.22-.86A145.21,145.21,0,0,0,187,152.44c.56-4.14.9-8.31,1.28-12.49a133.61,133.61,0,0,0,.39-17.09A160,160,0,0,0,184,87.15a92.82,92.82,0,0,0-7.59-20.63c-.64-1.27-3.66-6.26-4.09-6.86a32.17,32.17,0,0,0-6.82-7.2,15.31,15.31,0,0,0-6.05-2.94,12.4,12.4,0,0,0-9.54,2,23.15,23.15,0,0,0-5.55,5.24,50.74,50.74,0,0,0-7.07,12.53,120.67,120.67,0,0,0-6.05,19.43,2.43,2.43,0,0,1-.47,1.19c.13-.68.21-1.36.3-2A128.74,128.74,0,0,1,138.68,59a57.29,57.29,0,0,1,8.6-15.3,27.33,27.33,0,0,1,5.5-5.19,14.72,14.72,0,0,1,8.91-2.86,14.19,14.19,0,0,1,6.56,2,26.55,26.55,0,0,1,7.84,7.38c.3.38.6.81.9,1.23"/><path class="cls-6" d="M161.77,127.16c-6.9.77-13.55,1.37-20.15,2.18-10.79,1.32-21.57,2.77-32.27,4.69a238.43,238.43,0,0,0-26.59,6.09,65.64,65.64,0,0,0-13,5.07,32,32,0,0,0-4.51,3,9,9,0,0,0-2.13,2.42,5,5,0,0,0-.08,5.8,12.36,12.36,0,0,0,3.23,3.45A39.4,39.4,0,0,0,74,164.2,132.46,132.46,0,0,0,94,171a307.76,307.76,0,0,0,30.52,6.35c6.86,1.07,13.76,2.14,20.66,3q11.7,1.47,23.49,2.64c7.11.77,14.23,1.28,21.31,1.79,6.47.52,12.95.89,19.34,1.2,9.8.38,19.52.8,29.23,1,9.47.22,19,.3,28.47.26,9.21-.08,18.42-.3,27.58-.6,7.45-.25,14.87-.55,22.29-1q10.73-.64,21.47-1.54c6.56-.51,13.21-1.11,19.78-1.83,6.05-.6,12.1-1.41,18.15-2.18a4.07,4.07,0,0,1,1.24,0c-2.3.42-4.56.89-6.86,1.28-6,.93-11.85,1.91-17.82,2.68s-11.8,1.49-17.73,2.13c-4.68.55-9.46,1-14.15,1.41-5.79.51-11.54.94-17.34,1.36-4.64.34-9.25.68-13.94.94-6.3.3-12.57.6-18.83.85-6.61.26-13.21.43-19.78.6-4,.08-8,.17-12,.17-10.66,0-21.31,0-32-.09-7.49-.13-15-.42-22.5-.68-6.22-.25-12.44-.47-18.66-.81-4.86-.21-9.72-.6-14.58-.94s-9.63-.64-14.44-1.06c-5.29-.47-10.61-1-15.9-1.58-5.58-.59-11.17-1.19-16.75-2-6.26-.89-12.48-1.92-18.75-2.94q-11.62-1.92-23-4.86a120.6,120.6,0,0,1-19.64-6.52,33.58,33.58,0,0,1-9-5.41,16.06,16.06,0,0,1-2.51-3.11,5.75,5.75,0,0,1,0-6,14.37,14.37,0,0,1,4.22-4.39,46.9,46.9,0,0,1,10.23-5.37,157.63,157.63,0,0,1,23.6-7.07c9.34-2.13,18.76-3.84,28.22-5.25,8.18-1.14,16.36-2.13,24.59-3.11,6.52-.72,13-1.32,19.56-1.87s12.95-1,19.43-1.45A5.08,5.08,0,0,0,161.77,127.16Z"/><path class="cls-2" d="M13.13,301.13H0c.17-.31.26-.56.43-.82a19.25,19.25,0,0,0,2.21-5.71A68.48,68.48,0,0,0,4.35,284c.42-5.12.81-10.19,1.1-15.34.26-5,.39-10,.48-15.09.12-7,.21-14,.21-21a28.08,28.08,0,0,0-.21-3.66,9,9,0,0,0-2-4.56c-.13-.13-.22-.3-.39-.47v-.09a2.45,2.45,0,0,1,.85-.21H17.3a2.21,2.21,0,0,1,2.22,1.53c.68,1.92,1.4,3.75,2.13,5.63q5,13.42,10,26.76c3.2,8.44,6.35,16.92,9.55,25.36.17.42.34.81.6,1.49a10.2,10.2,0,0,0,.68-1.41c2.89-6.73,5.71-13.51,8.56-20.28q7.68-18.29,15.39-36.52a3.61,3.61,0,0,1,3.75-2.56c3.58,0,7.11,0,10.7,0,.25,0,.46.09.72.09l0,.29a26,26,0,0,0-2.26,10.62c-.43,8.52-.17,17-.08,25.56,0,5,.17,10.06.42,15.09a106.26,106.26,0,0,0,2,18,24.27,24.27,0,0,0,2.73,7.5,1.14,1.14,0,0,1,.13.43H67.42c.08-.17.08-.43.17-.55a25.84,25.84,0,0,0,2.3-8.7A93.15,93.15,0,0,0,70.15,279c-.09-6.86-.26-13.72-.35-20.5-.08-4.9-.17-9.76-.25-14.62,0-3.84-.09-7.67-.17-11.46a2.61,2.61,0,0,0-.26-1.11c-1.49,2.86-2.64,5.88-3.92,8.78s-2.47,6-3.75,9-2.47,5.88-3.7,8.82-2.52,5.92-3.76,8.9-2.51,6-3.79,8.91-2.47,6-3.75,9-2.47,5.84-3.66,8.78-2.56,5.93-3.75,8.91h-.3q-13.82-35.48-27.57-71H11a3,3,0,0,0-.17,1c-.09,9.07-.17,18.15-.17,27.23q-.08,15-.09,29.95a25.4,25.4,0,0,0,1.28,8.78C12.19,299.25,12.66,300.1,13.13,301.13Z"/><path class="cls-2" d="M212,301.3a11.05,11.05,0,0,0,2-6.4c.12-3.07.21-6.18.25-9.21,0-7.15,0-14.27,0-21.43a30.23,30.23,0,0,0-.68-5.84,7.11,7.11,0,0,0-6.14-6,12.06,12.06,0,0,0-7.63.77,10.3,10.3,0,0,0-5.92,8.1,34.67,34.67,0,0,0-.51,4.35c-.47,8.69-.17,17.38-.22,26.07a28,28,0,0,0,.26,3.76c.26,2,.47,4.09,2.17,5.79H182.61l-.08-.21a10.66,10.66,0,0,0,1.74-6c.17-3.11.3-6.26.34-9.41,0-8.06,0-16.12-.12-24.17-.05-3-.3-6-.64-9a7.67,7.67,0,0,0-1.58-4.17c3.62-.47,7.12-.86,10.74-1.28.25,2.08.47,4.09.72,6.26.34-.34.68-.59.94-.81a23.74,23.74,0,0,1,12.1-6.35,16.74,16.74,0,0,1,6.65-.08,11.66,11.66,0,0,1,8,6.18c.12.34.29.64.42,1s.34.64.6,1.15a7.55,7.55,0,0,1,1-1,27.58,27.58,0,0,1,8.39-6.1,17.87,17.87,0,0,1,10-1.28,11.66,11.66,0,0,1,9.59,9.17,31.32,31.32,0,0,1,.76,5.58c.09,10.14.17,20.24.26,30.38,0,1.75.17,3.58.3,5.38a7.62,7.62,0,0,0,1.83,4.47c-.77.34-9.55.43-11.13.12a1.66,1.66,0,0,0-.12-.29c.17-3.45.29-6.78.43-10.1,0-.3,0-.64,0-1,0-7.5.13-15,.13-22.55a46.16,46.16,0,0,0-.85-9,6.94,6.94,0,0,0-5.84-5.84,12.3,12.3,0,0,0-6.7.3,9.48,9.48,0,0,0-6.43,6.44,24.07,24.07,0,0,0-1.07,6.05c-.08,4.39-.17,8.78-.25,13.21-.05,3.79-.05,7.59,0,11.42.08,2.13.25,4.3.43,6.43A8.44,8.44,0,0,0,225,301a1.23,1.23,0,0,0-.21.26Z"/><path class="cls-3" d="M396.16,247.3c2.21-.26,4.09-.51,6-.77.72-.08,1.49-.13,2.26-.21a1.68,1.68,0,0,1,1.79.89c.59,1.2,1.27,2.39,1.75,3.63,1.14,3.15,2.3,6.3,3.19,9.54,2.47,8.48,4.77,17,7.16,25.53.56,2,1.11,3.88,1.7,5.84.09.29.22.64.43,1.19a6,6,0,0,0,.51-1.07A293.59,293.59,0,0,0,431.1,260a66.59,66.59,0,0,0,1.28-6.78,10.26,10.26,0,0,0-.34-4.94,6.46,6.46,0,0,1-.3-.94,97.79,97.79,0,0,1,11.81-.17c-.17.3-.26.55-.39.77a58.44,58.44,0,0,0-5.24,10.31c-5.45,13.68-10.82,27.45-16.36,41.08a157.86,157.86,0,0,1-9.46,19.39,49.69,49.69,0,0,1-8.65,11.47,21.91,21.91,0,0,1-11.29,6.09,16.32,16.32,0,0,1-9-.6,8.54,8.54,0,0,1-3.58-2.21,4.66,4.66,0,0,1-1-1.58,1.77,1.77,0,0,1,1.4-2.73,24.63,24.63,0,0,1,3.5-.38c2.42-.09,4.81,0,7.2,0,1.66-.05,3.32-.13,5-.3a11.39,11.39,0,0,0,7.67-4.09,50.27,50.27,0,0,0,9.8-17.73c1.06-3.41.68-6.78-.08-10.15a340.35,340.35,0,0,0-9.89-34.09c-1.15-3.32-2.39-6.69-3.67-10A11.87,11.87,0,0,0,396.16,247.3Z"/><path class="cls-2" d="M157.94,301.25H144.81c2.13-2.85,2.09-6.09,2.13-9.24q.13-16.25,0-32.48a55.3,55.3,0,0,0-.68-7.5,22.48,22.48,0,0,0-1.28-3.75c1.71-.3,3.54-.6,5.37-.94.85-.17,1.79-.34,2.69-.47a1.53,1.53,0,0,1,2,1.11,13,13,0,0,1,.47,2.56c0,1.06,0,2.09,0,3.11l.17.08a2.73,2.73,0,0,0,.72-.72,21.4,21.4,0,0,1,4.18-4.52,12.23,12.23,0,0,1,10-2.43,7.13,7.13,0,0,1,2.81,1.24,3.48,3.48,0,0,1,1.5,4,3.09,3.09,0,0,1-3,2.47,46,46,0,0,1-5,0c-1.67,0-3.33-.12-4.95,0a5.61,5.61,0,0,0-5.28,4.78,34.48,34.48,0,0,0-.85,5.92c-.18,3.37-.26,6.73-.26,10.1,0,4.65,0,9.33,0,13.94,0,2.13.08,4.22.26,6.3S156.27,299.29,157.94,301.25Z"/><path class="cls-3" d="M326.53,253.82c.25-.38.51-.72.76-1.11a17.12,17.12,0,0,1,6.22-5.58,12.26,12.26,0,0,1,7.67-1.07,6.92,6.92,0,0,1,3,1.32,3.64,3.64,0,0,1,1.28,4,3.29,3.29,0,0,1-2.9,2.38,16.63,16.63,0,0,1-2.52.13c-2.51,0-5.07-.55-7.63-.13a5.82,5.82,0,0,0-5.11,4.69,41.89,41.89,0,0,0-1,8.87c0,6.77-.13,13.59-.09,20.37,0,2.68.18,5.37.35,8a9.27,9.27,0,0,0,1.91,5.37,90.25,90.25,0,0,1-12.74,0,10.69,10.69,0,0,0,1.62-5.33c.17-2.3.34-4.51.34-6.77.09-7,.13-14,.13-20.88,0-3.41-.13-6.82-.21-10.23q-.13-2.69-.51-5.37a8.44,8.44,0,0,0-1.62-4.09c.89-.21,1.7-.34,2.47-.51l5.71-1a1.56,1.56,0,0,1,2,1.2,27.19,27.19,0,0,1,.47,3.36c0,.73,0,1.5,0,2.3Z"/><path class="cls-5" d="M172.94,13.38A13.34,13.34,0,1,1,159.6,0,13.36,13.36,0,0,1,172.94,13.38Z"/><path class="cls-7" d="M163.13,127h1v0h-.9Z"/><path class="cls-8" d="M293.21,278.24c0,1.87,0,3.73-.1,5.58C293.18,282,293.2,280.1,293.21,278.24Z"/><path class="cls-8" d="M302.74,295.07a48.68,48.68,0,0,1-.76-6.6,114,114,0,0,1-.17-11.55c.25-6,.34-12,.51-18a30.36,30.36,0,0,0-.17-4.39c-.55-3.76-2.56-6.4-6.22-7.51a29.93,29.93,0,0,0-4.65-1,41.18,41.18,0,0,0-9.67.09,32.5,32.5,0,0,0-9.89,2.21,15,15,0,0,0-5.2,3.28,6.3,6.3,0,0,0-2.13,5.33,4.13,4.13,0,0,0,4.26,3.92,4.79,4.79,0,0,0,4.35-2.56,42.5,42.5,0,0,0,2.47-4.68,6.62,6.62,0,0,1,3.84-3.37A13.16,13.16,0,0,1,287,250a7.47,7.47,0,0,1,5.92,5.66,17.65,17.65,0,0,1,.26,9,6.42,6.42,0,0,1-3,4.35c-1.87,1.1-3.74,2.09-5.62,3.07-3.58,1.74-7.16,3.32-10.74,5.07a36,36,0,0,0-7.07,4.52,10.63,10.63,0,0,0-1.11,15.64,16.82,16.82,0,0,0,20.29,3.4,17.52,17.52,0,0,0,6.81-6.77c.17-.34.26-.77.81-.94.3,3.07.39,6.1,1.58,8.91,3.41-.17,6.73-.43,10.4-.64A12.19,12.19,0,0,1,302.74,295.07Zm-9.63-11.25a15.7,15.7,0,0,1-1.7,6.61,9.22,9.22,0,0,1-7.24,5,12.36,12.36,0,0,1-5-.22c-7.72-1.83-8-9.46-4.39-13.59a15.37,15.37,0,0,1,4-3.07,109.38,109.38,0,0,1,13.85-6.31,2,2,0,0,1,.51,0,.84.84,0,0,0,.09.34c0,1.92,0,3.8,0,5.67S293.18,282,293.11,283.82Z"/><path class="cls-2" d="M293.2,272.57a.84.84,0,0,1-.09-.34,2.85,2.85,0,0,0,.09.51c0,1.83,0,3.66,0,5.5C293.21,276.37,293.2,274.49,293.2,272.57Z"/><path class="cls-8" d="M122.5,278.24c0,1.87,0,3.73-.09,5.58C122.47,282,122.49,280.1,122.5,278.24Z"/><path class="cls-8" d="M132,295.07a48.69,48.69,0,0,1-.77-6.6c-.25-3.84-.3-7.68-.17-11.55.26-6,.34-12,.51-18a30.36,30.36,0,0,0-.17-4.39c-.55-3.76-2.55-6.4-6.22-7.51a29.93,29.93,0,0,0-4.65-1,41.18,41.18,0,0,0-9.67.09,32.5,32.5,0,0,0-9.89,2.21,15,15,0,0,0-5.19,3.28,6.28,6.28,0,0,0-2.14,5.33A4.13,4.13,0,0,0,98,260.85a4.79,4.79,0,0,0,4.34-2.56,42.5,42.5,0,0,0,2.47-4.68,6.65,6.65,0,0,1,3.84-3.37,13.16,13.16,0,0,1,7.71-.25,7.48,7.48,0,0,1,5.93,5.66,17.76,17.76,0,0,1,.25,9,6.38,6.38,0,0,1-3,4.35c-1.87,1.1-3.75,2.09-5.63,3.07-3.58,1.74-7.15,3.32-10.74,5.07a36,36,0,0,0-7.07,4.52A10.63,10.63,0,0,0,95,297.25a16.83,16.83,0,0,0,20.29,3.4,17.61,17.61,0,0,0,6.82-6.77c.17-.34.25-.77.81-.94.29,3.07.38,6.1,1.57,8.91,3.41-.17,6.74-.43,10.4-.64A12.17,12.17,0,0,1,132,295.07Zm-9.63-11.25a15.86,15.86,0,0,1-1.71,6.61,9.19,9.19,0,0,1-7.24,5,12.37,12.37,0,0,1-5-.22c-7.71-1.83-8-9.46-4.39-13.59a15.54,15.54,0,0,1,4-3.07,110.15,110.15,0,0,1,13.86-6.31,2,2,0,0,1,.51,0,.92.92,0,0,0,.08.34c0,1.92,0,3.8,0,5.67S122.47,282,122.41,283.82Z"/><path class="cls-2" d="M122.49,272.57a.92.92,0,0,1-.08-.34,3.18,3.18,0,0,0,.08.51c0,1.83,0,3.66,0,5.5C122.5,276.37,122.49,274.49,122.49,272.57Z"/><path class="cls-3" d="M392.28,301.16c-3.62.26-7,.48-10.4.69a19.65,19.65,0,0,1-1.06-4.48c-.17-1.49-.34-3-.56-4.81-.38.59-.59,1-.8,1.32a16.61,16.61,0,0,1-8.74,7.67,16.81,16.81,0,0,1-18.5-4.56,10.5,10.5,0,0,1,.34-14.4,21.09,21.09,0,0,1,5.46-4c3.88-2,7.8-3.88,11.72-5.8,2-1,4.05-2,6.05-3.07a7.59,7.59,0,0,0,4.43-6.56,19.61,19.61,0,0,0-.38-7.24,8,8,0,0,0-7-6.18,15.54,15.54,0,0,0-4.86,0c-2.6.56-4.73,1.67-5.88,4.18-.73,1.54-1.5,3.07-2.35,4.48a4.7,4.7,0,0,1-3.62,2.43c-3.15.38-5.37-1.88-4.86-5.37a6.77,6.77,0,0,1,2.39-4.14,18.2,18.2,0,0,1,6.82-3.62,37.9,37.9,0,0,1,8.39-1.58,47.53,47.53,0,0,1,9.16,0,22.64,22.64,0,0,1,5.37,1.28,8.46,8.46,0,0,1,5.2,5.88,22,22,0,0,1,.43,6.9c-.09,2.09-.26,4.18-.26,6.31-.08,7-.17,14.06-.12,21.14a36.06,36.06,0,0,0,1.15,8.82A11.7,11.7,0,0,0,392.28,301.16ZM379,272.4c-3.92,1.7-7.84,3.32-11.59,5.16a20.94,20.94,0,0,0-4.69,2.94,8.82,8.82,0,0,0-3.41,7.88,7.3,7.3,0,0,0,4.65,6.27,12.09,12.09,0,0,0,7,.81,9.15,9.15,0,0,0,7.16-4.95,16.4,16.4,0,0,0,1.7-6.77c.09-3.58.13-7.16.17-10.74,0-.22,0-.47-.08-.9A5.84,5.84,0,0,0,379,272.4Z"/><g class="cls-9"><path class="cls-10" d="M392.28,301.16a11.7,11.7,0,0,1-2.51-4.81,36.06,36.06,0,0,1-1.15-8.82c-.05-7.08,0-14.11.12-21.14,0-2.13.17-4.22.26-6.31a22,22,0,0,0-.43-6.9,8.46,8.46,0,0,0-5.2-5.88A22.64,22.64,0,0,0,378,246a47.53,47.53,0,0,0-9.16,0,37.9,37.9,0,0,0-8.39,1.58,18.2,18.2,0,0,0-6.82,3.62,6.77,6.77,0,0,0-2.39,4.14c-.51,3.49,1.71,5.75,4.86,5.37a4.7,4.7,0,0,0,3.62-2.43c.85-1.41,1.62-2.94,2.35-4.48,1.15-2.51,3.28-3.62,5.88-4.18a15.54,15.54,0,0,1,4.86,0,8,8,0,0,1,7,6.18,19.61,19.61,0,0,1,.38,7.24,7.59,7.59,0,0,1-4.43,6.56c-2,1-4,2.05-6.05,3.07-3.92,1.92-7.84,3.8-11.72,5.8a21.09,21.09,0,0,0-5.46,4,10.5,10.5,0,0,0-.34,14.4,16.81,16.81,0,0,0,18.5,4.56,16.61,16.61,0,0,0,8.74-7.67c.21-.34.42-.73.8-1.32.22,1.83.39,3.32.56,4.81a19.65,19.65,0,0,0,1.06,4.48C385.29,301.64,388.66,301.42,392.28,301.16Z"/><path class="cls-3" d="M380,272.1a5.84,5.84,0,0,0-.94.3c-3.92,1.7-7.84,3.32-11.59,5.16a20.94,20.94,0,0,0-4.69,2.94,8.82,8.82,0,0,0-3.41,7.88,7.3,7.3,0,0,0,4.65,6.27,12.09,12.09,0,0,0,7,.81,9.15,9.15,0,0,0,7.16-4.95,16.4,16.4,0,0,0,1.7-6.77c.09-3.58.13-7.16.17-10.74C380.05,272.78,380,272.53,380,272.1Z"/></g></g></g></svg>